<?xml version="1.0" standalone="no"?>
<!DOCTYPE svg PUBLIC "-//W3C//DTD SVG 20010904//EN"
 "http://www.w3.org/TR/2001/REC-SVG-20010904/DTD/svg10.dtd">
<svg version="1.0" xmlns="http://www.w3.org/2000/svg"
 width="138.000000pt" height="132.000000pt" viewBox="0 0 138.000000 132.000000"
 preserveAspectRatio="xMidYMid meet">

<g transform="translate(0.000000,132.000000) scale(0.100000,-0.100000)"
fill="#8d99a5" stroke="none">
<path d="M597 1145 c-35 -34 -7 -124 44 -140 36 -12 11 -18 -56 -16 l-65 2 0
-105 c0 -88 3 -106 15 -106 12 0 15 -13 15 -60 l0 -60 -47 0 c-61 0 -72 -6
-261 -141 -87 -62 -158 -113 -159 -114 -1 0 25 -73 57 -160 33 -88 60 -165 60
-171 0 -6 6 -17 14 -23 11 -9 34 5 112 69 l99 80 271 0 c300 0 360 7 419 48
47 33 185 225 185 258 0 36 -10 54 -41 69 -31 17 -53 12 -86 -18 l-23 -20 0
121 c0 103 2 122 15 122 13 0 15 16 13 103 l-3 102 -60 1 c-33 1 -64 2 -70 3
-5 1 3 10 19 20 35 23 55 56 56 92 1 95 -178 67 -245 -39 -11 -17 -22 -31 -25
-31 -3 -1 -15 15 -28 34 -48 74 -183 122 -225 80z m120 -36 c44 -21 103 -83
103 -107 0 -11 -10 -13 -47 -8 -96 14 -177 74 -160 119 9 23 52 21 104 -4z
m357 15 c39 -15 1 -82 -62 -107 -21 -8 -59 -18 -85 -22 -58 -9 -62 7 -15 61
47 54 120 84 162 68z m-244 -239 l0 -65 -135 0 -135 0 0 65 0 65 135 0 135 0
0 -65z m310 0 l0 -65 -135 0 -135 0 0 65 0 65 135 0 135 0 0 -65z m-310 -181
l0 -75 -22 15 c-17 12 -48 16 -120 16 l-98 0 0 60 0 60 120 0 120 0 0 -76z
m280 -68 l0 -144 -35 -31 c-34 -29 -40 -31 -120 -31 l-85 0 0 175 0 175 120 0
120 0 0 -144z m-280 -156 c0 -47 -1 -50 -27 -50 -14 0 -49 15 -77 33 l-51 32
63 6 c35 3 68 11 75 18 16 16 17 15 17 -39z"/>
</g>
</svg>
